<svg width="18" height="18" viewBox="0 0 18 18" fill="none" xmlns="http://www.w3.org/2000/svg">
<path d="M15.7332 2.26653L15.7332 2.2665C14.9151 1.44847 13.8324 1 12.6754 1C11.5184 1 10.4357 1.44847 9.61766 2.26648L9.61759 2.26655C8.84144 3.04251 7.83917 4.61296 7.11854 6.27248L7.11853 6.2725C6.88311 6.81461 6.59108 7.57092 6.39255 8.36777C6.18995 9.18097 6.1076 9.9481 6.21494 10.548C6.27252 10.8698 6.16918 11.1994 5.93821 11.4307L3.43919 14.1735C3.09097 14.5557 2.50882 14.6094 2.09654 14.2974C1.99548 14.2209 1.9138 14.1573 1.83935 14.0994C1.74061 14.0225 1.65458 13.9555 1.55293 13.8815C1.42421 13.7878 1.33366 13.7313 1.26895 13.6984C0.907049 14.0756 0.9103 14.6783 1.27921 15.0516C1.28306 15.0541 1.32084 15.0803 1.42877 15.1123C1.56602 15.1529 1.72615 15.1782 1.94518 15.2106L1.94607 15.2107L1.9471 15.2109C2.38271 15.2757 2.72467 15.6178 2.7892 16.0535L2.7899 16.0581L1.80069 16.2047L2.7899 16.0582C2.82235 16.2772 2.84761 16.4364 2.88798 16.5726C2.91916 16.6778 2.94471 16.7151 2.94732 16.7192C3.13139 16.9017 3.37031 17 3.62952 17C3.88356 17 4.1181 16.9056 4.30056 16.7302C4.26762 16.6657 4.21136 16.5754 4.11807 16.4472C4.04416 16.3456 3.97756 16.26 3.90115 16.1617C3.84301 16.0869 3.77919 16.0048 3.70215 15.9029C3.39068 15.4906 3.44451 14.909 3.82633 14.561L6.56407 12.0654L6.56799 12.0614C6.79935 11.8301 7.12928 11.7265 7.45136 11.7842C8.05118 11.8916 8.81833 11.8093 9.63159 11.6067C10.4285 11.4082 11.1849 11.1162 11.727 10.8808C13.3864 10.1602 14.9569 9.15811 15.7332 8.382L15.7332 2.26653ZM15.7332 2.26653C16.5514 3.08461 17 4.16728 17 5.32408C17 6.48091 16.5515 7.56369 15.7332 8.38197L15.7332 2.26653ZM2.94319 16.7151C2.94343 16.7154 2.94366 16.7156 2.94388 16.7158L2.94319 16.7151Z" fill="white" stroke="#FEFEFE" stroke-width="2" stroke-linejoin="round"/>
</svg>
