<svg width="19" height="21" viewBox="0 0 19 21" fill="none" xmlns="http://www.w3.org/2000/svg">
<path d="M17.3198 13.0937C18.001 11.8144 18.3563 10.3869 18.3542 8.93748C18.3542 4.04738 14.3901 0.083313 9.50001 0.083313C4.6099 0.083313 0.645841 4.04738 0.645841 8.93748C0.642257 11.0262 1.38058 13.0482 2.72917 14.6432L2.73959 14.6562C2.74324 14.6594 2.74636 14.6635 2.74897 14.6666H2.72917L7.98334 20.2448C8.17811 20.4515 8.41311 20.6163 8.67388 20.7289C8.93466 20.8415 9.2157 20.8995 9.49975 20.8995C9.78379 20.8995 10.0648 20.8415 10.3256 20.7289C10.5864 20.6163 10.8214 20.4515 11.0162 20.2448L16.2708 14.6666H16.2511L16.2594 14.6568L16.2604 14.6557C16.2979 14.6109 16.3354 14.5661 16.3724 14.5203C16.7337 14.0763 17.0511 13.5984 17.3203 13.0932L17.3198 13.0937ZM9.50209 12.3229C8.67329 12.3229 7.87843 11.9937 7.29238 11.4076C6.70633 10.8216 6.37709 10.0267 6.37709 9.1979C6.37709 8.3691 6.70633 7.57424 7.29238 6.98819C7.87843 6.40214 8.67329 6.0729 9.50209 6.0729C10.3309 6.0729 11.1257 6.40214 11.7118 6.98819C12.2979 7.57424 12.6271 8.3691 12.6271 9.1979C12.6271 10.0267 12.2979 10.8216 11.7118 11.4076C11.1257 11.9937 10.3309 12.3229 9.50209 12.3229Z" fill="white"/>
</svg>
