<svg width="25" height="31" viewBox="0 0 25 31" fill="none" xmlns="http://www.w3.org/2000/svg">
<path d="M12.5 21.3333C15.7171 21.3333 18.3333 18.7171 18.3333 15.5V6.75001C18.3333 3.51688 15.7302 0.886047 12.5306 0.886047C12.428 0.886664 12.3257 0.898895 12.2258 0.922506C10.7285 0.995102 9.31635 1.64052 8.28159 2.72523C7.24683 3.80993 6.66865 5.2509 6.66666 6.75001V15.5C6.66666 18.7171 9.28291 21.3333 12.5 21.3333Z" fill="white"/>
<path d="M11.0417 27.066V30.0833H13.9583V27.066C19.7027 26.3442 24.1667 21.4398 24.1667 15.5H21.25C21.25 20.3256 17.3256 24.25 12.5 24.25C7.67438 24.25 3.75 20.3256 3.75 15.5H0.833336C0.833336 21.4383 5.29729 26.3442 11.0417 27.066Z" fill="white"/>
</svg>
