<svg width="59" height="60" viewBox="0 0 59 60" fill="none" xmlns="http://www.w3.org/2000/svg">
<g filter="url(#filter0_d_10_302)">
<path d="M28.5 46.3277C29.1124 46.3136 29.7002 46.0834 30.1592 45.6777C30.6182 45.2721 30.919 44.7171 31.0083 44.1111H25.8944C25.9863 44.7336 26.3011 45.3016 26.7804 45.7093C27.2597 46.1171 27.8708 46.3368 28.5 46.3277Z" fill="white" fill-opacity="0.99"/>
<path d="M42.9375 40.3486L42.6069 40.057C41.6692 39.2214 40.8483 38.2633 40.1667 37.2083C39.4222 35.7525 38.9759 34.1626 38.8542 32.532V27.7292C38.8502 27.1458 38.7982 26.5637 38.6986 25.9889C37.0518 25.6504 35.5725 24.7532 34.5112 23.4492C33.45 22.1453 32.872 20.5146 32.875 18.8333V18.2208C31.8599 17.7213 30.7693 17.3928 29.6472 17.2486V16.0236C29.6472 15.6794 29.5105 15.3493 29.2671 15.1059C29.0237 14.8625 28.6935 14.7257 28.3493 14.7257C28.0051 14.7257 27.6749 14.8625 27.4315 15.1059C27.1881 15.3493 27.0514 15.6794 27.0514 16.0236V17.2972C24.5389 17.6517 22.2394 18.9031 20.5776 20.8205C18.9157 22.7379 18.0036 25.1918 18.0097 27.7292V32.532C17.8879 34.1626 17.4417 35.7525 16.6972 37.2083C16.0272 38.2606 15.2196 39.2186 14.2958 40.057L13.9653 40.3486V43.0903H42.9375V40.3486Z" fill="white" fill-opacity="0.99"/>
<path d="M40.1667 23.6945C42.8514 23.6945 45.0278 21.5181 45.0278 18.8333C45.0278 16.1486 42.8514 13.9722 40.1667 13.9722C37.4819 13.9722 35.3055 16.1486 35.3055 18.8333C35.3055 21.5181 37.4819 23.6945 40.1667 23.6945Z" fill="white" fill-opacity="0.99"/>
</g>
<defs>
<filter id="filter0_d_10_302" x="-2" y="0" width="61" height="61" filterUnits="userSpaceOnUse" color-interpolation-filters="sRGB">
<feFlood flood-opacity="0" result="BackgroundImageFix"/>
<feColorMatrix in="SourceAlpha" type="matrix" values="0 0 0 0 0 0 0 0 0 0 0 0 0 0 0 0 0 0 127 0" result="hardAlpha"/>
<feOffset/>
<feGaussianBlur stdDeviation="6.5"/>
<feColorMatrix type="matrix" values="0 0 0 0 1 0 0 0 0 1 0 0 0 0 1 0 0 0 0.46 0"/>
<feBlend mode="normal" in2="BackgroundImageFix" result="effect1_dropShadow_10_302"/>
<feBlend mode="normal" in="SourceGraphic" in2="effect1_dropShadow_10_302" result="shape"/>
</filter>
</defs>
</svg>
