<svg width="14" height="14" viewBox="0 0 14 14" fill="none" xmlns="http://www.w3.org/2000/svg">
<path d="M13.83 2.21127C13.7228 2.12459 13.5816 2.09111 13.4468 2.11997C13.4427 2.12085 13.0244 2.20877 12.3692 2.20877C11.0489 2.20877 9.09845 1.87162 7.30453 0.265453C7.13114 0.110236 6.86889 0.110236 6.69547 0.265453C4.90161 1.87156 2.95117 2.20874 1.63085 2.20877C0.975465 2.20877 0.557352 2.12085 0.554248 2.12018C0.419148 2.09057 0.278052 2.12377 0.170343 2.21045C0.0626348 2.2971 0 2.42791 0 2.56614C0 6.92696 1.34838 9.61258 2.47955 11.0976C4.02576 13.1276 5.8285 13.851 7 13.851C8.1715 13.851 9.97427 13.1276 11.5204 11.0976C12.6516 9.61258 14 6.92693 14 2.56614C14 2.42827 13.9372 2.29792 13.83 2.21127ZM10.7154 5.7379L6.63259 9.82076C6.54345 9.9099 6.42661 9.95449 6.3098 9.95449C6.19299 9.95449 6.07612 9.90993 5.98701 9.82076L3.6498 7.48355C3.47151 7.30526 3.47151 7.01622 3.6498 6.83794C3.82806 6.65965 4.11713 6.65965 4.29541 6.83794L6.30983 8.85232L10.0699 5.09229C10.2482 4.91403 10.5372 4.914 10.7155 5.09229C10.8938 5.27057 10.8938 5.55961 10.7154 5.7379Z" fill="white"/>
</svg>
