<svg width="244" height="66" viewBox="0 0 244 66" fill="none" xmlns="http://www.w3.org/2000/svg">
<path d="M39.3537 6.05513C19.6789 9.44375 2.73584 12.3483 1.73308 12.4866C0.730325 12.5903 -0.0649632 12.8324 0.00419237 12.9707C0.0733479 13.109 3.35824 15.979 7.36926 19.3676C11.3803 22.7216 14.8381 25.6607 15.0455 25.9028C15.495 26.3177 15.4605 26.3869 10.1701 35.4117C8.89068 37.5555 7.68046 39.9759 7.47299 40.7712C6.6777 43.7795 7.88792 46.8915 10.827 49.2773C11.6223 49.9343 14.1811 52.0781 16.4632 54.0145L20.6125 57.576L23.2059 53.1501C24.589 50.7296 27.044 46.5803 28.6346 43.9178C30.1906 41.2553 33.6484 35.3425 36.3454 30.7782C39.0079 26.214 41.3592 22.2721 41.5667 22.0301C41.9816 21.6151 45.2319 20.9927 60.2732 18.5031C63.6964 17.9153 66.843 17.3621 67.2925 17.2929C67.7075 17.1892 68.0532 17.2583 68.0532 17.4312C68.0532 17.8116 58.4406 34.4089 57.8874 35.0313C57.5762 35.3425 37.7631 39.0077 32.7839 39.6647C32.2998 39.7339 31.9886 39.9068 32.0924 40.1142C32.1615 40.2871 33.6484 41.6357 35.3772 43.0879C37.0716 44.5402 43.3993 49.8997 49.3812 54.9827C55.3632 60.0656 60.7573 64.5261 61.3106 64.8719C63.8347 66.4625 64.2151 66.4625 76.9743 64.2841C83.4749 63.143 88.7999 62.1748 88.7999 62.0711C88.7999 61.8982 75.937 50.8679 74.0006 49.3465C73.4474 48.9316 73.4819 48.7933 74.1389 47.6176C75.1071 45.8541 81.2274 35.4117 86.3794 26.6289C91.8082 17.3966 92.0156 16.9817 92.1885 14.6996C92.396 11.6222 91.2895 9.99699 85.6533 5.22526C80.2246 0.695572 79.3602 0.17691 76.9051 0.00402069C75.6949 -0.0997162 63.9039 1.80206 39.3537 6.05513Z" fill="white"/>
<path d="M120.88 29H124.12L120.736 22.616C122.44 21.8 123.376 20.072 123.376 17.624C123.376 14.192 121.48 12.2 118.192 12.2H113.584V29H116.536V23.144H117.88L120.88 29ZM116.536 15.008H118.168C119.584 15.008 120.352 15.92 120.352 17.648C120.352 19.4 119.584 20.336 118.168 20.336H116.536V15.008ZM135.271 26.216V21.824H140.311V19.136H135.271V14.984H140.767V12.2H132.319V29H141.007V26.216H135.271ZM157.659 20.384C158.619 19.64 159.195 18.32 159.195 16.88C159.195 14.048 157.395 12.2 154.755 12.2H149.835V29H154.899C157.803 29 159.795 27.08 159.795 24.08C159.795 22.448 159.003 21.056 157.659 20.384ZM154.299 14.984C155.595 14.984 156.195 15.656 156.195 17C156.195 18.368 155.595 19.112 154.395 19.112H152.787V14.984H154.299ZM154.443 26.216H152.787V21.872H154.419C155.907 21.872 156.771 22.616 156.771 24.08C156.771 25.496 155.979 26.216 154.443 26.216ZM171.264 26.216V21.824H176.304V19.136H171.264V14.984H176.76V12.2H168.312V29H177V26.216H171.264ZM188.781 26.192V12.2H185.829V29H194.037V26.192H188.781Z" fill="#FFB800"/>
<path d="M121.096 57H123.328L119.44 50.472C121.552 49.872 122.776 48.048 122.776 45.288C122.776 42.072 121.024 40.2 117.856 40.2H113.752V57H115.72V50.664H117.424L121.096 57ZM115.72 42.048H117.856C119.776 42.048 120.784 43.176 120.784 45.36C120.784 47.592 119.776 48.816 117.832 48.816H115.72V42.048ZM136.507 57.312C139.627 57.312 141.475 55.176 141.475 51.72V45.456C141.475 42.024 139.627 39.888 136.507 39.888C133.387 39.888 131.515 42.024 131.515 45.456V51.72C131.515 55.176 133.387 57.312 136.507 57.312ZM136.507 55.392C134.539 55.392 133.531 54.072 133.531 51.72V45.456C133.531 43.128 134.539 41.808 136.507 41.808C138.451 41.808 139.459 43.128 139.459 45.456V51.72C139.459 54.072 138.451 55.392 136.507 55.392ZM152.862 55.128V40.2H150.894V57H158.718V55.128H152.862ZM168.995 55.152V49.368H174.635V47.568H168.995V42.024H175.067V40.2H167.027V57H175.331V55.152H168.995ZM188.628 40.2H184.38V57H186.348V50.88H188.628C191.82 50.88 193.62 48.984 193.62 45.504C193.62 42.12 191.82 40.2 188.628 40.2ZM188.628 49.008H186.348V42.072H188.628C190.644 42.072 191.628 43.224 191.628 45.504C191.628 47.904 190.644 49.008 188.628 49.008ZM204.098 55.128V40.2H202.13V57H209.954V55.128H204.098ZM225.44 57H227.504L223.184 40.2H221.048L216.728 57H218.792L219.68 53.352H224.552L225.44 57ZM220.112 51.528L221.48 45.84C221.744 44.76 221.984 43.344 222.08 42.696H222.152C222.248 43.344 222.488 44.76 222.752 45.84L224.12 51.528H220.112ZM237.736 57H239.704V51.24L243.856 40.2H241.792L239.656 46.176C239.368 46.992 239.032 47.976 238.744 48.84H238.72C238.432 47.976 238.096 47.016 237.808 46.224L235.672 40.2H233.608L237.736 51.24V57Z" fill="white"/>
</svg>
