<svg width="494" height="84" viewBox="0 0 494 84" fill="none" xmlns="http://www.w3.org/2000/svg">
<rect width="138" height="59" fill="#FFB800"/>
<path d="M48.152 26.2L40.92 43.736C39.96 46.104 38.36 50.2 37.784 52.056H37.528C36.952 50.2 35.416 46.104 34.456 43.736L27.16 26.2H19.224V71H26.904V56.984C26.712 51.736 26.52 46.616 26.264 41.56L26.584 41.432C27.928 45.144 29.336 49.176 30.744 53.208L33.752 61.144H41.56L44.568 53.208C45.976 49.176 47.448 45.144 48.728 41.432L49.048 41.56C48.792 46.616 48.6 51.736 48.408 56.984V71H56.152V26.2H48.152ZM82.9045 71H91.0965L80.0885 26.2H71.6405L60.6325 71H68.8245L70.6165 62.872H81.1125L82.9045 71ZM72.2165 55.384L74.0085 47.064C74.6485 43.992 75.3525 39.064 75.7365 36.056H75.9285C76.3765 39.064 77.0805 43.992 77.7205 47.064L79.5125 55.384H72.2165ZM117.615 26.2H95.599V71H103.471V33.688H117.615V26.2ZM137.655 71H145.847L134.839 26.2H126.391L115.383 71H123.575L125.367 62.872H135.863L137.655 71ZM126.967 55.384L128.759 47.064C129.399 43.992 130.103 39.064 130.487 36.056H130.679C131.127 39.064 131.831 43.992 132.471 47.064L134.263 55.384H126.967ZM168.525 47.704C172.941 45.848 174.669 42.84 174.669 38.296C174.669 30.296 169.485 25.24 161.549 25.24C152.781 25.24 148.237 31.192 147.725 39.512H155.533C155.725 35.736 157.197 32.792 161.549 32.792C164.941 32.792 166.733 34.968 166.733 38.36C166.733 42.52 164.685 44.568 160.333 44.568H157.709V51.416H160.909C165.325 51.416 167.949 53.656 167.949 57.88C167.949 61.976 165.133 64.28 161.485 64.28C157.005 64.28 155.021 60.952 154.893 57.752H146.957C147.277 65.304 152.461 71.896 161.549 71.896C169.677 71.896 176.013 66.776 176.013 58.328C176.013 53.272 174.157 49.304 168.525 47.704ZM181.161 71H188.97L197.994 50.328C199.338 47.256 200.554 43.672 201.706 40.6L201.898 40.792C201.386 45.528 201.066 52.824 201.066 57.048V71H208.746V26.2H200.874L191.338 48.088C190.122 50.776 189.034 53.848 188.074 56.344L187.882 56.216C188.458 51.352 188.842 44.568 188.842 40.856V26.2H181.161V71ZM235.912 26.2V44.632H225.096V26.2H217.224V71H225.096V52.12H235.912V71H243.848V26.2H235.912ZM278.401 71.768C287.233 71.768 292.481 66.072 292.481 56.6V40.6C292.481 31.128 287.233 25.432 278.401 25.432C269.505 25.432 264.257 31.128 264.257 40.6V56.6C264.257 66.072 269.505 71.768 278.401 71.768ZM278.401 64.152C274.433 64.152 272.385 61.464 272.385 56.6V40.6C272.385 35.736 274.433 33.048 278.401 33.048C282.369 33.048 284.353 35.736 284.353 40.6V56.6C284.353 61.464 282.369 64.152 278.401 64.152ZM327.502 63.64V26.2H304.462L303.694 46.232C303.438 52.76 302.158 59.736 298.51 63.64H295.758V78.552H303.502V71H323.79V78.552H331.534V63.64H327.502ZM319.694 63.64H307.726C309.966 59.608 311.054 54.36 311.246 48.472L311.822 33.624H319.694V63.64ZM344.596 63.576V51.864H358.036V44.696H344.596V33.624H359.252V26.2H336.724V71H359.892V63.576H344.596ZM401.034 71H409.738L396.17 46.488L408.586 26.2H399.69L392.586 39L389.834 44.568V26.2H382.154V44.504L379.53 39.128L372.362 26.2H363.402L375.818 46.424L362.25 71H371.018L379.978 53.08L382.154 56.472V71H389.834V56.536L392.01 53.144L401.034 71ZM441.814 63.64V26.2H418.774L418.006 46.232C417.75 52.76 416.47 59.736 412.822 63.64H410.07V78.552H417.814V71H438.102V78.552H445.846V63.64H441.814ZM434.006 63.64H422.038C424.278 59.608 425.366 54.36 425.558 48.472L426.134 33.624H434.006V63.64ZM451.036 71H462.621C471.965 71 476.381 66.584 476.381 57.432C476.381 49.24 471.965 43.608 462.621 43.608H459.101V26.2H451.036V71ZM481.117 71H488.989V26.2H481.117V71ZM459.101 63.768V51.096H462.045C466.141 51.096 468.189 53.144 468.189 57.432C468.189 61.784 466.141 63.768 462.045 63.768H459.101Z" fill="white"/>
</svg>
