<svg width="387" height="77" viewBox="0 0 387 77" fill="none" xmlns="http://www.w3.org/2000/svg">
<rect width="104" height="59" fill="#FFB800"/>
<path d="M30.816 49.768C32.736 48.28 33.888 45.64 33.888 42.76C33.888 37.096 30.288 33.4 25.008 33.4H15.168V67H25.296C31.104 67 35.088 63.16 35.088 57.16C35.088 53.896 33.504 51.112 30.816 49.768ZM24.096 38.968C26.688 38.968 27.888 40.312 27.888 43C27.888 45.736 26.688 47.224 24.288 47.224H21.072V38.968H24.096ZM24.384 61.432H21.072V52.744H24.336C27.312 52.744 29.04 54.232 29.04 57.16C29.04 59.992 27.456 61.432 24.384 61.432ZM39.4024 67H48.0904C55.0984 67 58.4104 63.688 58.4104 56.824C58.4104 50.68 55.0984 46.456 48.0904 46.456H45.4504V33.4H39.4024V67ZM61.9624 67H67.8664V33.4H61.9624V67ZM45.4504 61.576V52.072H47.6584C50.7304 52.072 52.2664 53.608 52.2664 56.824C52.2664 60.088 50.7304 61.576 47.6584 61.576H45.4504ZM83.7848 46.408H80.0408V38.92H92.2328V33.4H74.1367V67H83.7848C90.6008 67 94.1048 63.64 94.1048 56.68C94.1048 50.584 90.6008 46.408 83.7848 46.408ZM83.3528 61.384H80.0408V51.928H83.3528C86.2328 51.928 88.0088 53.464 88.0088 56.68C88.0088 59.944 86.2328 61.384 83.3528 61.384ZM108.254 67.576C114.878 67.576 118.814 63.304 118.814 56.2V44.2C118.814 37.096 114.878 32.824 108.254 32.824C101.582 32.824 97.6455 37.096 97.6455 44.2V56.2C97.6455 63.304 101.582 67.576 108.254 67.576ZM108.254 61.864C105.278 61.864 103.742 59.848 103.742 56.2V44.2C103.742 40.552 105.278 38.536 108.254 38.536C111.23 38.536 112.718 40.552 112.718 44.2V56.2C112.718 59.848 111.23 61.864 108.254 61.864ZM133.511 33.4H124.199V67H130.103V55.72H133.511C140.279 55.72 144.263 51.64 144.263 44.584C144.263 37.528 140.279 33.4 133.511 33.4ZM133.463 50.152H130.103V39.016H133.463C136.631 39.016 138.215 40.888 138.215 44.584C138.215 48.28 136.631 50.152 133.463 50.152ZM178.713 33.4H158.793V67H164.697V39.016H172.809V67H178.713V33.4ZM190.9 61.432V52.648H200.98V47.272H190.9V38.968H201.892V33.4H184.996V67H202.372V61.432H190.9ZM216.621 33.4H207.309V67H213.213V55.72H216.621C223.389 55.72 227.373 51.64 227.373 44.584C227.373 37.528 223.389 33.4 216.621 33.4ZM216.573 50.152H213.213V39.016H216.573C219.741 39.016 221.325 40.888 221.325 44.584C221.325 48.28 219.741 50.152 216.573 50.152ZM241.085 67.576C247.565 67.576 251.357 63.832 251.597 57.016H245.693C245.453 60.376 244.013 61.864 241.085 61.864C238.589 61.864 237.101 60.28 237.101 56.92V43.48C237.101 40.024 238.589 38.44 241.037 38.44C243.917 38.44 245.357 39.928 245.549 43.384H251.453C251.165 36.52 247.517 32.728 241.085 32.728C234.797 32.728 231.005 36.52 231.005 43.48V56.92C231.005 63.832 234.845 67.576 241.085 67.576ZM265.519 67.576C272.143 67.576 276.079 63.304 276.079 56.2V44.2C276.079 37.096 272.143 32.824 265.519 32.824C258.847 32.824 254.911 37.096 254.911 44.2V56.2C254.911 63.304 258.847 67.576 265.519 67.576ZM265.519 61.864C262.543 61.864 261.007 59.848 261.007 56.2V44.2C261.007 40.552 262.543 38.536 265.519 38.536C268.495 38.536 269.983 40.552 269.983 44.2V56.2C269.983 59.848 268.495 61.864 265.519 61.864ZM295.481 33.4V47.224H287.369V33.4H281.465V67H287.369V52.84H295.481V67H301.433V33.4H295.481ZM321.538 67H327.682L319.426 33.4H313.09L304.834 67H310.978L312.322 60.904H320.194L321.538 67ZM313.522 55.288L314.866 49.048C315.346 46.744 315.874 43.048 316.162 40.792H316.306C316.642 43.048 317.17 46.744 317.65 49.048L318.994 55.288H313.522ZM356.979 67H363.507L353.331 48.616L362.643 33.4H355.971L350.643 43L348.579 47.176V33.4H342.819V47.128L340.851 43.096L335.475 33.4H328.755L338.067 48.568L327.891 67H334.467L341.187 53.56L342.819 56.104V67H348.579V56.152L350.211 53.608L356.979 67ZM380.46 67H386.604L378.348 33.4H372.012L363.756 67H369.9L371.244 60.904H379.116L380.46 67ZM372.444 55.288L373.788 49.048C374.268 46.744 374.796 43.048 375.084 40.792H375.228C375.564 43.048 376.092 46.744 376.572 49.048L377.916 55.288H372.444Z" fill="white"/>
</svg>
