<svg width="168" height="61" viewBox="0 0 168 61" fill="none" xmlns="http://www.w3.org/2000/svg">
<rect width="61" height="46" fill="#FFB800"/>
<path d="M26.776 10.2L24.592 17.712L22.192 10.2H19.072L23.272 22.272C22.72 24.144 22.192 24.624 20.896 24.624H20.176V27.264H20.8C23.608 27.264 24.856 26.472 25.888 23.16L29.872 10.2H26.776ZM41.3956 10.2H31.4356V27H34.3876V13.008H38.4436V27H41.3956V10.2ZM49.1931 10.2H44.5371V27H47.4891V21.36H49.1931C52.5771 21.36 54.5691 19.32 54.5691 15.792C54.5691 12.264 52.5771 10.2 49.1931 10.2ZM49.1691 18.576H47.4891V13.008H49.1691C50.7531 13.008 51.5451 13.944 51.5451 15.792C51.5451 17.64 50.7531 18.576 49.1691 18.576ZM62.6517 27H65.7237L61.5957 10.2H58.4277L54.2997 27H57.3717L58.0437 23.952H61.9797L62.6517 27ZM58.6437 21.144L59.3157 18.024C59.5557 16.872 59.8197 15.024 59.9637 13.896H60.0357C60.2037 15.024 60.4677 16.872 60.7077 18.024L61.3797 21.144H58.6437ZM75.2361 18.384C76.1961 17.64 76.7721 16.32 76.7721 14.88C76.7721 12.048 74.9721 10.2 72.3321 10.2H67.4121V27H72.4761C75.3801 27 77.3721 25.08 77.3721 22.08C77.3721 20.448 76.5801 19.056 75.2361 18.384ZM71.8761 12.984C73.1721 12.984 73.7721 13.656 73.7721 15C73.7721 16.368 73.1721 17.112 71.9721 17.112H70.3641V12.984H71.8761ZM72.0201 24.216H70.3641V19.872H71.9961C73.4841 19.872 74.3481 20.616 74.3481 22.08C74.3481 23.496 73.5561 24.216 72.0201 24.216ZM80.7974 10.2C80.4854 17.208 80.2934 20.424 80.0054 22.152C79.6694 24.096 79.1414 24.6 78.1094 24.6V27.264C80.6774 27.264 82.2854 26.472 82.8374 22.872C83.1494 20.928 83.3894 17.64 83.6294 12.984H86.7494V27H89.7014V10.2H80.7974ZM95.8173 24.216V19.824H100.857V17.136H95.8173V12.984H101.313V10.2H92.8652V27H101.553V24.216H95.8173ZM111.03 10.2V17.112H106.974V10.2H104.021V27H106.974V19.92H111.03V27H114.006V10.2H111.03ZM117.17 27H120.098L123.482 19.248C123.986 18.096 124.442 16.752 124.874 15.6L124.946 15.672C124.754 17.448 124.634 20.184 124.634 21.768V27H127.514V10.2H124.562L120.986 18.408C120.53 19.416 120.122 20.568 119.762 21.504L119.69 21.456C119.906 19.632 120.05 17.088 120.05 15.696V10.2H117.17V27ZM133.645 24.216V19.824H138.685V17.136H133.645V12.984H139.141V10.2H130.693V27H139.381V24.216H133.645ZM25.408 56.288C28.72 56.288 30.688 54.152 30.688 50.6V44.6C30.688 41.048 28.72 38.912 25.408 38.912C22.072 38.912 20.104 41.048 20.104 44.6V50.6C20.104 54.152 22.072 56.288 25.408 56.288ZM25.408 53.432C23.92 53.432 23.152 52.424 23.152 50.6V44.6C23.152 42.776 23.92 41.768 25.408 41.768C26.896 41.768 27.64 42.776 27.64 44.6V50.6C27.64 52.424 26.896 53.432 25.408 53.432ZM38.0369 39.2H33.3809V56H36.3329V50.36H38.0369C41.4209 50.36 43.4129 48.32 43.4129 44.792C43.4129 41.264 41.4209 39.2 38.0369 39.2ZM38.0129 47.576H36.3329V42.008H38.0129C39.5969 42.008 40.3889 42.944 40.3889 44.792C40.3889 46.64 39.5969 47.576 38.0129 47.576ZM53.6603 39.2H45.4043V56H48.3563V42.008H53.6603V39.2ZM61.1751 56H64.2471L60.1191 39.2H56.9511L52.8231 56H55.8951L56.5671 52.952H60.5031L61.1751 56ZM57.1671 50.144L57.8391 47.024C58.0791 45.872 58.3431 44.024 58.4871 42.896H58.5591C58.7271 44.024 58.9911 45.872 59.2311 47.024L59.9031 50.144H57.1671ZM72.9436 39.2V46.112H68.8876V39.2H65.9356V56H68.8876V48.92H72.9436V56H75.9196V39.2H72.9436ZM79.084 56H82.012L85.396 48.248C85.9 47.096 86.356 45.752 86.788 44.6L86.86 44.672C86.668 46.448 86.548 49.184 86.548 50.768V56H89.428V39.2H86.476L82.9 47.408C82.444 48.416 82.036 49.568 81.676 50.504L81.604 50.456C81.82 48.632 81.964 46.088 81.964 44.696V39.2H79.084V56ZM99.4234 47.264C101.079 46.568 101.727 45.44 101.727 43.736C101.727 40.736 99.7834 38.84 96.8074 38.84C93.5194 38.84 91.8154 41.072 91.6234 44.192H94.5514C94.6234 42.776 95.1754 41.672 96.8074 41.672C98.0794 41.672 98.7514 42.488 98.7514 43.76C98.7514 45.32 97.9834 46.088 96.3514 46.088H95.3674V48.656H96.5674C98.2234 48.656 99.2074 49.496 99.2074 51.08C99.2074 52.616 98.1514 53.48 96.7834 53.48C95.1034 53.48 94.3594 52.232 94.3114 51.032H91.3354C91.4554 53.864 93.3994 56.336 96.8074 56.336C99.8554 56.336 102.231 54.416 102.231 51.248C102.231 49.352 101.535 47.864 99.4234 47.264ZM110.675 56H113.747L109.619 39.2H106.451L102.323 56H105.395L106.067 52.952H110.003L110.675 56ZM106.667 50.144L107.339 47.024C107.579 45.872 107.843 44.024 107.987 42.896H108.059C108.227 44.024 108.491 45.872 108.731 47.024L109.403 50.144H106.667ZM123.98 58.832H126.884V53.192H125.348V39.2H122.372V53.192H118.388V39.2H115.436V56H123.98V58.832ZM128.795 56H131.723L135.107 48.248C135.611 47.096 136.067 45.752 136.499 44.6L136.571 44.672C136.379 46.448 136.259 49.184 136.259 50.768V56H139.139V39.2H136.187L132.611 47.408C132.155 48.416 131.747 49.568 131.387 50.504L131.315 50.456C131.531 48.632 131.675 46.088 131.675 44.696V39.2H128.795V56ZM145.27 53.216V48.824H150.31V46.136H145.27V41.984H150.766V39.2H142.318V56H151.006V53.216H145.27ZM158.731 37.544C160.387 37.544 161.611 36.512 161.683 34.616H159.811C159.787 35.336 159.307 35.744 158.707 35.744C158.083 35.744 157.627 35.336 157.603 34.616H155.707C155.779 36.464 157.027 37.544 158.731 37.544ZM153.475 56H156.403L159.787 48.248C160.291 47.096 160.747 45.752 161.179 44.6L161.251 44.672C161.059 46.448 160.939 49.184 160.939 50.768V56H163.819V39.2H160.867L157.291 47.408C156.835 48.416 156.427 49.568 156.067 50.504L155.995 50.456C156.211 48.632 156.355 46.088 156.355 44.696V39.2H153.475V56Z" fill="white"/>
</svg>
