<svg width="407" height="38" viewBox="0 0 407 38" fill="none" xmlns="http://www.w3.org/2000/svg">
<path d="M11.664 7.8L8.388 19.068L4.788 7.8H0.108L6.408 25.908C5.58 28.716 4.788 29.436 2.844 29.436H1.764V33.396H2.7C6.912 33.396 8.784 32.208 10.332 27.24L16.308 7.8H11.664ZM33.5933 7.8H18.6533V33H23.0813V12.012H29.1653V33H33.5933V7.8ZM45.2897 7.8H38.3057V33H42.7337V24.54H45.2897C50.3657 24.54 53.3537 21.48 53.3537 16.188C53.3537 10.896 50.3657 7.8 45.2897 7.8ZM45.2537 20.364H42.7337V12.012H45.2537C47.6297 12.012 48.8177 13.416 48.8177 16.188C48.8177 18.96 47.6297 20.364 45.2537 20.364ZM65.4775 33H70.0855L63.8935 7.8H59.1415L52.9495 33H57.5575L58.5655 28.428H64.4695L65.4775 33ZM59.4655 24.216L60.4735 19.536C60.8335 17.808 61.2295 15.036 61.4455 13.344H61.5535C61.8055 15.036 62.2015 17.808 62.5615 19.536L63.5695 24.216H59.4655ZM84.3542 20.076C85.7942 18.96 86.6582 16.98 86.6582 14.82C86.6582 10.572 83.9582 7.8 79.9982 7.8H72.6182V33H80.2142C84.5702 33 87.5582 30.12 87.5582 25.62C87.5582 23.172 86.3702 21.084 84.3542 20.076ZM79.3142 11.976C81.2582 11.976 82.1582 12.984 82.1582 15C82.1582 17.052 81.2582 18.168 79.4582 18.168H77.0462V11.976H79.3142ZM79.5302 28.824H77.0462V22.308H79.4942C81.7262 22.308 83.0222 23.424 83.0222 25.62C83.0222 27.744 81.8342 28.824 79.5302 28.824ZM92.6961 7.8C92.2281 18.312 91.9401 23.136 91.5081 25.728C91.0041 28.644 90.2121 29.4 88.6641 29.4V33.396C92.5161 33.396 94.9281 32.208 95.7561 26.808C96.2241 23.892 96.5841 18.96 96.9441 11.976H101.624V33H106.052V7.8H92.6961ZM115.226 28.824V22.236H122.786V18.204H115.226V11.976H123.47V7.8H110.798V33H123.83V28.824H115.226ZM138.044 7.8V18.168H131.96V7.8H127.532V33H131.96V22.38H138.044V33H142.508V7.8H138.044ZM147.255 33H151.647L156.723 21.372C157.479 19.644 158.163 17.628 158.811 15.9L158.919 16.008C158.631 18.672 158.451 22.776 158.451 25.152V33H162.771V7.8H158.343L152.979 20.112C152.295 21.624 151.683 23.352 151.143 24.756L151.035 24.684C151.359 21.948 151.575 18.132 151.575 16.044V7.8H147.255V33ZM171.968 28.824V22.236H179.528V18.204H171.968V11.976H180.212V7.8H167.54V33H180.572V28.824H171.968ZM198.964 33.432C203.932 33.432 206.884 30.228 206.884 24.9V15.9C206.884 10.572 203.932 7.368 198.964 7.368C193.96 7.368 191.008 10.572 191.008 15.9V24.9C191.008 30.228 193.96 33.432 198.964 33.432ZM198.964 29.148C196.732 29.148 195.58 27.636 195.58 24.9V15.9C195.58 13.164 196.732 11.652 198.964 11.652C201.196 11.652 202.312 13.164 202.312 15.9V24.9C202.312 27.636 201.196 29.148 198.964 29.148ZM217.907 7.8H210.923V33H215.351V24.54H217.907C222.983 24.54 225.971 21.48 225.971 16.188C225.971 10.896 222.983 7.8 217.907 7.8ZM217.871 20.364H215.351V12.012H217.871C220.247 12.012 221.435 13.416 221.435 16.188C221.435 18.96 220.247 20.364 217.871 20.364ZM241.342 7.8H228.958V33H233.386V12.012H241.342V7.8ZM252.614 33H257.222L251.03 7.8H246.278L240.086 33H244.694L245.702 28.428H251.606L252.614 33ZM246.602 24.216L247.61 19.536C247.97 17.808 248.366 15.036 248.582 13.344H248.69C248.942 15.036 249.338 17.808 249.698 19.536L250.706 24.216H246.602ZM270.267 7.8V18.168H264.183V7.8H259.755V33H264.183V22.38H270.267V33H274.731V7.8H270.267ZM279.478 33H283.87L288.946 21.372C289.702 19.644 290.386 17.628 291.034 15.9L291.142 16.008C290.854 18.672 290.674 22.776 290.674 25.152V33H294.994V7.8H290.566L285.202 20.112C284.518 21.624 283.906 23.352 283.366 24.756L283.258 24.684C283.582 21.948 283.798 18.132 283.798 16.044V7.8H279.478V33ZM309.987 19.896C312.471 18.852 313.443 17.16 313.443 14.604C313.443 10.104 310.527 7.26 306.063 7.26C301.131 7.26 298.575 10.608 298.287 15.288H302.679C302.787 13.164 303.615 11.508 306.063 11.508C307.971 11.508 308.979 12.732 308.979 14.64C308.979 16.98 307.827 18.132 305.379 18.132H303.903V21.984H305.703C308.187 21.984 309.663 23.244 309.663 25.62C309.663 27.924 308.079 29.22 306.027 29.22C303.507 29.22 302.391 27.348 302.319 25.548H297.855C298.035 29.796 300.951 33.504 306.063 33.504C310.635 33.504 314.199 30.624 314.199 25.872C314.199 23.028 313.155 20.796 309.987 19.896ZM326.864 33H331.472L325.28 7.8H320.528L314.336 33H318.944L319.952 28.428H325.856L326.864 33ZM320.852 24.216L321.86 19.536C322.22 17.808 322.616 15.036 322.832 13.344H322.94C323.192 15.036 323.588 17.808 323.948 19.536L324.956 24.216H320.852ZM346.821 37.248H351.177V28.788H348.873V7.8H344.409V28.788H338.433V7.8H334.005V33H346.821V37.248ZM354.044 33H358.436L363.512 21.372C364.268 19.644 364.952 17.628 365.6 15.9L365.708 16.008C365.42 18.672 365.24 22.776 365.24 25.152V33H369.56V7.8H365.132L359.768 20.112C359.084 21.624 358.472 23.352 357.932 24.756L357.824 24.684C358.148 21.948 358.364 18.132 358.364 16.044V7.8H354.044V33ZM378.757 28.824V22.236H386.317V18.204H378.757V11.976H387.001V7.8H374.329V33H387.361V28.824H378.757ZM398.948 5.316C401.432 5.316 403.268 3.768 403.376 0.923999H400.568C400.532 2.004 399.812 2.616 398.912 2.616C397.976 2.616 397.292 2.004 397.256 0.923999H394.412C394.52 3.696 396.392 5.316 398.948 5.316ZM391.063 33H395.456L400.532 21.372C401.288 19.644 401.972 17.628 402.62 15.9L402.728 16.008C402.44 18.672 402.26 22.776 402.26 25.152V33H406.58V7.8H402.152L396.788 20.112C396.104 21.624 395.492 23.352 394.952 24.756L394.844 24.684C395.168 21.948 395.384 18.132 395.384 16.044V7.8H391.063V33Z" fill="url(#paint0_linear_10_277)"/>
<defs>
<linearGradient id="paint0_linear_10_277" x1="7.61821e-07" y1="19" x2="409" y2="19" gradientUnits="userSpaceOnUse">
<stop stop-color="white" stop-opacity="0.18"/>
<stop offset="0.786458" stop-color="white" stop-opacity="0"/>
</linearGradient>
</defs>
</svg>
