<svg width="346" height="248" viewBox="0 0 346 248" fill="none" xmlns="http://www.w3.org/2000/svg">
<path d="M147.664 22.7202C73.84 35.4351 10.2655 46.3336 6.50293 46.8526C2.74035 47.2418 -0.243757 48.15 0.0157307 48.669C0.275219 49.188 12.6009 59.9567 27.6512 72.6716C42.7015 85.2568 55.6759 96.285 56.4543 97.1932C58.141 98.7501 58.0113 99.0096 38.1604 132.873C33.3599 140.917 28.8189 149.999 28.0404 152.983C25.0563 164.271 29.5973 175.948 40.6256 184.9C43.6097 187.365 53.2107 195.409 61.7738 202.675L77.3431 216.039L87.0739 199.431C92.2637 190.349 101.475 174.78 107.444 164.79C113.282 154.799 126.257 132.613 136.377 115.487C146.367 98.3609 155.189 83.5701 155.968 82.6619C157.525 81.105 169.721 78.7696 226.159 69.428C239.004 67.2224 250.811 65.1465 252.497 64.887C254.054 64.4978 255.352 64.7572 255.352 65.406C255.352 66.8331 219.283 129.11 217.207 131.446C216.039 132.613 141.696 146.366 123.013 148.831C121.197 149.091 120.029 149.739 120.418 150.518C120.678 151.167 126.257 156.227 132.744 161.676C139.101 167.125 162.844 187.235 185.29 206.308C207.736 225.38 227.976 242.117 230.052 243.415C239.523 249.383 240.95 249.383 288.826 241.209C313.218 236.927 333.198 233.294 333.198 232.905C333.198 232.257 284.933 190.868 277.668 185.16C275.592 183.603 275.722 183.084 278.187 178.672C281.82 172.055 304.784 132.873 324.116 99.9178C344.486 65.2762 345.264 63.7193 345.913 55.1562C346.691 43.609 342.54 37.511 321.391 19.6064C301.022 2.60994 297.778 0.663788 288.566 0.0150757C284.025 -0.374161 239.782 6.76175 147.664 22.7202Z" fill="url(#paint0_linear_10_279)" fill-opacity="0.06"/>
<defs>
<linearGradient id="paint0_linear_10_279" x1="173" y1="247.647" x2="173" y2="-1.52588e-05" gradientUnits="userSpaceOnUse">
<stop stop-color="white" stop-opacity="0"/>
<stop offset="1" stop-color="white"/>
</linearGradient>
</defs>
</svg>
