<svg width="307" height="84" viewBox="0 0 307 84" fill="none" xmlns="http://www.w3.org/2000/svg">
<rect width="138" height="59" fill="#FFB800"/>
<path d="M37.592 71H45.784L34.776 26.2H26.328L15.32 71H23.512L25.304 62.872H35.8L37.592 71ZM26.904 55.384L28.696 47.064C29.336 43.992 30.04 39.064 30.424 36.056H30.616C31.064 39.064 31.768 43.992 32.408 47.064L34.2 55.384H26.904ZM71.1505 48.024C73.7105 46.04 75.2465 42.52 75.2465 38.68C75.2465 31.128 70.4465 26.2 63.4065 26.2H50.2865V71H63.7905C71.5345 71 76.8465 65.88 76.8465 57.88C76.8465 53.528 74.7345 49.816 71.1505 48.024ZM62.1905 33.624C65.6465 33.624 67.2465 35.416 67.2465 39C67.2465 42.648 65.6465 44.632 62.4465 44.632H58.1585V33.624H62.1905ZM62.5745 63.576H58.1585V51.992H62.5105C66.4785 51.992 68.7825 53.976 68.7825 57.88C68.7825 61.656 66.6705 63.576 62.5745 63.576ZM104.761 26.2H78.649V33.688H87.673V71H95.737V33.688H104.761V26.2ZM122.901 71.768C131.733 71.768 136.981 66.072 136.981 56.6V40.6C136.981 31.128 131.733 25.432 122.901 25.432C114.005 25.432 108.757 31.128 108.757 40.6V56.6C108.757 66.072 114.005 71.768 122.901 71.768ZM122.901 64.152C118.933 64.152 116.885 61.464 116.885 56.6V40.6C116.885 35.736 118.933 33.048 122.901 33.048C126.869 33.048 128.853 35.736 128.853 40.6V56.6C128.853 61.464 126.869 64.152 122.901 64.152ZM156.322 71.768C164.962 71.768 170.018 66.776 170.338 57.688H162.466C162.146 62.168 160.226 64.152 156.322 64.152C152.994 64.152 151.01 62.04 151.01 57.56V39.64C151.01 35.032 152.994 32.92 156.258 32.92C160.098 32.92 162.018 34.904 162.274 39.512H170.146C169.762 30.36 164.898 25.304 156.322 25.304C147.938 25.304 142.882 30.36 142.882 39.64V57.56C142.882 66.776 148.002 71.768 156.322 71.768ZM193.217 71H201.409L190.401 26.2H181.953L170.945 71H179.137L180.929 62.872H191.425L193.217 71ZM182.529 55.384L184.321 47.064C184.961 43.992 185.665 39.064 186.049 36.056H186.241C186.689 39.064 187.393 43.992 188.033 47.064L189.825 55.384H182.529ZM209.793 26.2C208.961 44.888 208.449 53.464 207.681 58.072C206.785 63.256 205.377 64.6 202.625 64.6V71.704C209.473 71.704 213.761 69.592 215.233 59.992C216.065 54.808 216.705 46.04 217.345 33.624H225.665V71H233.537V26.2H209.793ZM254.838 71.768C263.67 71.768 268.918 66.072 268.918 56.6V40.6C268.918 31.128 263.67 25.432 254.838 25.432C245.942 25.432 240.694 31.128 240.694 40.6V56.6C240.694 66.072 245.942 71.768 254.838 71.768ZM254.838 64.152C250.87 64.152 248.822 61.464 248.822 56.6V40.6C248.822 35.736 250.87 33.048 254.838 33.048C258.806 33.048 260.79 35.736 260.79 40.6V56.6C260.79 61.464 258.806 64.152 254.838 64.152ZM294.787 26.2V44.632H283.971V26.2H276.099V71H283.971V52.12H294.787V71H302.723V26.2H294.787Z" fill="white"/>
</svg>
