<svg width="22" height="22" viewBox="0 0 22 22" fill="none" xmlns="http://www.w3.org/2000/svg">
<path d="M11 20.7778C9.37926 20.7778 7.82487 20.1339 6.67882 18.9879C5.53276 17.8418 4.88892 16.2874 4.88892 14.6666V7.33331C4.88892 5.71254 5.53276 4.15816 6.67882 3.0121C7.82487 1.86605 9.37926 1.2222 11 1.2222C12.6208 1.2222 14.1752 1.86605 15.3212 3.0121C16.4673 4.15816 17.1111 5.71254 17.1111 7.33331V14.6666C17.1111 15.4692 16.9531 16.2638 16.646 17.0053C16.3388 17.7467 15.8887 18.4204 15.3212 18.9879C14.7538 19.5553 14.0801 20.0055 13.3386 20.3126C12.5972 20.6197 11.8025 20.7778 11 20.7778ZM11 2.44442C9.70341 2.44442 8.4599 2.9595 7.54306 3.87634C6.62622 4.79319 6.11114 6.0367 6.11114 7.33331V14.6666C6.11114 15.9633 6.62622 17.2068 7.54306 18.1236C8.4599 19.0405 9.70341 19.5555 11 19.5555C12.2966 19.5555 13.5401 19.0405 14.457 18.1236C15.3738 17.2068 15.8889 15.9633 15.8889 14.6666V7.33331C15.8889 6.0367 15.3738 4.79319 14.457 3.87634C13.5401 2.9595 12.2966 2.44442 11 2.44442Z" fill="white" fill-opacity="0.51"/>
<path d="M11 9.16667C10.838 9.16667 10.6825 9.10228 10.5679 8.98768C10.4533 8.87307 10.3889 8.71763 10.3889 8.55555V6.11111C10.3889 5.94903 10.4533 5.7936 10.5679 5.67899C10.6825 5.56438 10.838 5.5 11 5.5C11.1621 5.5 11.3175 5.56438 11.4321 5.67899C11.5468 5.7936 11.6111 5.94903 11.6111 6.11111V8.55555C11.6111 8.71763 11.5468 8.87307 11.4321 8.98768C11.3175 9.10228 11.1621 9.16667 11 9.16667Z" fill="white" fill-opacity="0.51"/>
</svg>
